<mxfile host="app.diagrams.net" modified="2024-04-24T06:37:31.018Z" agent="Mozilla/5.0 (Windows NT 10.0; Win64; x64) AppleWebKit/537.36 (KHTML, like Gecko) Chrome/109.0.0.0 Safari/537.36 SLBrowser/9.0.3.1311 SLBChan/103" etag="Bz65oiiVYur_89Un3Ohp" version="24.3.0" type="github">
  <diagram name="第 1 页" id="os9tUINQiIrtwKBo-8XF">
    <mxGraphModel dx="835" dy="488" grid="1" gridSize="10" guides="1" tooltips="1" connect="1" arrows="1" fold="1" page="1" pageScale="1" pageWidth="827" pageHeight="1169" math="0" shadow="0">
      <root>
        <mxCell id="0" />
        <mxCell id="1" parent="0" />
        <mxCell id="yAcAZ_Hfqat0lbzNQTXd-8" value="" style="edgeStyle=orthogonalEdgeStyle;rounded=0;orthogonalLoop=1;jettySize=auto;html=1;exitX=-0.001;exitY=0.363;exitDx=0;exitDy=0;exitPerimeter=0;" edge="1" parent="1" source="yAcAZ_Hfqat0lbzNQTXd-2">
          <mxGeometry relative="1" as="geometry">
            <mxPoint x="390" y="445" as="targetPoint" />
          </mxGeometry>
        </mxCell>
        <mxCell id="yAcAZ_Hfqat0lbzNQTXd-2" value="&#xa;&lt;span style=&quot;color: rgb(0, 0, 0); font-family: Helvetica; font-size: 12px; font-style: normal; font-variant-ligatures: normal; font-variant-caps: normal; font-weight: 400; letter-spacing: normal; orphans: 2; text-align: center; text-indent: 0px; text-transform: none; white-space: normal; widows: 2; word-spacing: 0px; -webkit-text-stroke-width: 0px; background-color: rgb(251, 251, 251); text-decoration-thickness: initial; text-decoration-style: initial; text-decoration-color: initial; display: inline !important; float: none;&quot;&gt;HSV-180UD-035C&lt;/span&gt;&#xa;&#xa;" style="rounded=0;whiteSpace=wrap;html=1;" vertex="1" parent="1">
          <mxGeometry x="480" y="370" width="290" height="210" as="geometry" />
        </mxCell>
        <mxCell id="yAcAZ_Hfqat0lbzNQTXd-6" style="edgeStyle=orthogonalEdgeStyle;rounded=0;orthogonalLoop=1;jettySize=auto;html=1;" edge="1" parent="1">
          <mxGeometry relative="1" as="geometry">
            <mxPoint x="390" y="403" as="targetPoint" />
            <mxPoint x="480" y="403" as="sourcePoint" />
          </mxGeometry>
        </mxCell>
        <mxCell id="yAcAZ_Hfqat0lbzNQTXd-10" value="R1" style="edgeLabel;html=1;align=center;verticalAlign=middle;resizable=0;points=[];" vertex="1" connectable="0" parent="yAcAZ_Hfqat0lbzNQTXd-6">
          <mxGeometry x="0.864" relative="1" as="geometry">
            <mxPoint x="-26" as="offset" />
          </mxGeometry>
        </mxCell>
        <mxCell id="yAcAZ_Hfqat0lbzNQTXd-5" value="L1" style="text;html=1;align=center;verticalAlign=middle;resizable=0;points=[];autosize=1;strokeColor=none;fillColor=none;" vertex="1" parent="1">
          <mxGeometry x="485" y="388" width="40" height="30" as="geometry" />
        </mxCell>
        <mxCell id="yAcAZ_Hfqat0lbzNQTXd-9" value="L2" style="text;html=1;align=center;verticalAlign=middle;resizable=0;points=[];autosize=1;strokeColor=none;fillColor=none;" vertex="1" parent="1">
          <mxGeometry x="485" y="430" width="40" height="30" as="geometry" />
        </mxCell>
        <mxCell id="yAcAZ_Hfqat0lbzNQTXd-11" value="S1" style="text;html=1;align=center;verticalAlign=middle;resizable=0;points=[];autosize=1;strokeColor=none;fillColor=none;" vertex="1" parent="1">
          <mxGeometry x="350" y="430" width="40" height="30" as="geometry" />
        </mxCell>
        <mxCell id="yAcAZ_Hfqat0lbzNQTXd-19" value="" style="edgeStyle=orthogonalEdgeStyle;rounded=0;orthogonalLoop=1;jettySize=auto;html=1;" edge="1" parent="1">
          <mxGeometry relative="1" as="geometry">
            <mxPoint x="480" y="490" as="sourcePoint" />
            <mxPoint x="390" y="490" as="targetPoint" />
          </mxGeometry>
        </mxCell>
        <mxCell id="yAcAZ_Hfqat0lbzNQTXd-12" value="L3" style="text;html=1;align=center;verticalAlign=middle;resizable=0;points=[];autosize=1;strokeColor=none;fillColor=none;" vertex="1" parent="1">
          <mxGeometry x="485" y="480" width="40" height="30" as="geometry" />
        </mxCell>
        <mxCell id="yAcAZ_Hfqat0lbzNQTXd-14" value="T1" style="text;html=1;align=center;verticalAlign=middle;resizable=0;points=[];autosize=1;strokeColor=none;fillColor=none;" vertex="1" parent="1">
          <mxGeometry x="350" y="470" width="40" height="30" as="geometry" />
        </mxCell>
        <mxCell id="yAcAZ_Hfqat0lbzNQTXd-16" style="edgeStyle=orthogonalEdgeStyle;rounded=0;orthogonalLoop=1;jettySize=auto;html=1;exitX=0;exitY=0.75;exitDx=0;exitDy=0;entryX=0.954;entryY=0.492;entryDx=0;entryDy=0;entryPerimeter=0;" edge="1" parent="1">
          <mxGeometry relative="1" as="geometry">
            <mxPoint x="388" y="540" as="targetPoint" />
            <mxPoint x="480" y="540" as="sourcePoint" />
          </mxGeometry>
        </mxCell>
        <mxCell id="yAcAZ_Hfqat0lbzNQTXd-17" value="PE" style="text;html=1;align=center;verticalAlign=middle;resizable=0;points=[];autosize=1;strokeColor=none;fillColor=none;" vertex="1" parent="1">
          <mxGeometry x="350" y="528" width="40" height="30" as="geometry" />
        </mxCell>
        <mxCell id="yAcAZ_Hfqat0lbzNQTXd-18" value="PE" style="text;html=1;align=center;verticalAlign=middle;resizable=0;points=[];autosize=1;strokeColor=none;fillColor=none;" vertex="1" parent="1">
          <mxGeometry x="485" y="528" width="40" height="30" as="geometry" />
        </mxCell>
        <mxCell id="yAcAZ_Hfqat0lbzNQTXd-21" style="edgeStyle=orthogonalEdgeStyle;rounded=0;orthogonalLoop=1;jettySize=auto;html=1;" edge="1" parent="1" source="yAcAZ_Hfqat0lbzNQTXd-20">
          <mxGeometry relative="1" as="geometry">
            <mxPoint x="900" y="403.0000000000001" as="targetPoint" />
          </mxGeometry>
        </mxCell>
        <mxCell id="yAcAZ_Hfqat0lbzNQTXd-20" value="IN" style="text;html=1;align=center;verticalAlign=middle;resizable=0;points=[];autosize=1;strokeColor=none;fillColor=none;" vertex="1" parent="1">
          <mxGeometry x="730" y="388" width="40" height="30" as="geometry" />
        </mxCell>
        <mxCell id="yAcAZ_Hfqat0lbzNQTXd-23" style="edgeStyle=orthogonalEdgeStyle;rounded=0;orthogonalLoop=1;jettySize=auto;html=1;" edge="1" parent="1" source="yAcAZ_Hfqat0lbzNQTXd-22">
          <mxGeometry relative="1" as="geometry">
            <mxPoint x="900" y="445" as="targetPoint" />
          </mxGeometry>
        </mxCell>
        <mxCell id="yAcAZ_Hfqat0lbzNQTXd-22" value="OUT" style="text;html=1;align=center;verticalAlign=middle;resizable=0;points=[];autosize=1;strokeColor=none;fillColor=none;" vertex="1" parent="1">
          <mxGeometry x="720" y="430" width="50" height="30" as="geometry" />
        </mxCell>
        <mxCell id="yAcAZ_Hfqat0lbzNQTXd-25" style="edgeStyle=orthogonalEdgeStyle;rounded=0;orthogonalLoop=1;jettySize=auto;html=1;" edge="1" parent="1" source="yAcAZ_Hfqat0lbzNQTXd-24">
          <mxGeometry relative="1" as="geometry">
            <mxPoint x="900" y="485" as="targetPoint" />
          </mxGeometry>
        </mxCell>
        <mxCell id="yAcAZ_Hfqat0lbzNQTXd-24" value="X35" style="text;html=1;align=center;verticalAlign=middle;resizable=0;points=[];autosize=1;strokeColor=none;fillColor=none;" vertex="1" parent="1">
          <mxGeometry x="730" y="470" width="40" height="30" as="geometry" />
        </mxCell>
        <mxCell id="yAcAZ_Hfqat0lbzNQTXd-27" style="edgeStyle=orthogonalEdgeStyle;rounded=0;orthogonalLoop=1;jettySize=auto;html=1;" edge="1" parent="1" source="yAcAZ_Hfqat0lbzNQTXd-26">
          <mxGeometry relative="1" as="geometry">
            <mxPoint x="900" y="543" as="targetPoint" />
          </mxGeometry>
        </mxCell>
        <mxCell id="yAcAZ_Hfqat0lbzNQTXd-26" value="X36" style="text;html=1;align=center;verticalAlign=middle;resizable=0;points=[];autosize=1;strokeColor=none;fillColor=none;" vertex="1" parent="1">
          <mxGeometry x="730" y="528" width="40" height="30" as="geometry" />
        </mxCell>
      </root>
    </mxGraphModel>
  </diagram>
</mxfile>
